<?xml version="1.0" encoding="UTF-8"?>
<svg id="a" data-name="Laag 1" xmlns="http://www.w3.org/2000/svg" viewBox="0 0 265.67 114.13">
  <g>
    <path d="M68.68,77.74c-11.6-23.61-11.6-40.87,0-64.48,3.5-1.19,5.31-1.76,9-2.81-7.85,20.35-9.53,36.92-4.52,58.09,7.69,1.31,11.72,1.89,19.89,2.82.98,5.49,1.58,8.21,2.98,13.54-9.26-1.99-18.39-4.04-27.35-7.15Z"/>
    <path d="M131.34,88.5c-8.99-.03-18.29-.82-27.17-2.22-4.81-27.65-4.81-53.93,0-81.55,8.88-1.41,18.18-2.2,27.17-2.22-.06,5.79-.08,8.73-.12,14.68-7.32.04-11.07.17-18.52.63-.62,7.35-.85,11.09-1.07,18.58,7.3-.14,10.96-.18,18.16-.2-.03,6.06-.03,9.11-.01,15.17-7.22-.01-10.9-.04-18.23-.13.17,8.81.41,13.22,1.14,21.85,7.45.45,11.2.59,18.52.62.04,6,.07,8.97.12,14.8Z"/>
    <path d="M168.02,5.8c4,.73,5.98,1.14,9.88,2.04,1.98,27.96-5.92,52.48-15.78,78.34-4.36.67-6.55.95-10.94,1.38-2.9-28.84-9.96-56.76-15.99-85.06,3.99.06,6.01.14,10.06.42,4.4,16.76,8.91,33.55,11.88,50.64.47,2.97.9,6.4,1.21,10.29.31,3.88.38,6.55.36,8.04.63-3.49,2.17-9.66,4.07-18.45,3.49-16.02,5.5-31.26,5.25-47.64Z"/>
    <path d="M183.56,81.76c8.8-25.48,8.8-47.05,0-72.53,3.78.98,5.63,1.52,9.23,2.65,10.7,24.48,10.7,42.75,0,67.24-3.6,1.13-5.45,1.66-9.23,2.65Z"/>
  </g>
  <path d="M247.07,45.5c-8.13,7.33-49.41,43-114.24,43S26.73,52.83,18.6,45.5C26.73,38.17,68.01,2.5,132.83,2.5s106.11,35.67,114.24,43Z" style="fill: none; stroke: #000; stroke-miterlimit: 10; stroke-width: 5px;"/>
  <g>
    <path d="M0,58.5C9.45,49.98,57.45,8.5,132.83,8.5s123.38,41.48,132.83,50c-9.45,8.52-57.45,50-132.83,50S9.45,67.02,0,58.5Z" style="fill: none;"/>
    <path d="M63.71,81.02l2.23.94-10.15,11.22-2.27-.96.95-15.09,2.21.93-.7,9.34c-.02.45-.08,1.02-.18,1.7-.1.68-.19,1.18-.26,1.5.27-.42.61-.9,1.03-1.43.42-.53.73-.92.96-1.17l6.18-6.99Z"/>
    <path d="M62.57,95.84l4.91-13.41,2.19.8-4.91,13.41-2.19-.8Z"/>
    <path d="M77.7,96.83c-.38,1.21-1.12,2.02-2.22,2.43-1.09.41-2.41.37-3.95-.12s-2.72-1.13-3.55-1.92l.67-2.1c.53.49,1.11.93,1.76,1.32.64.39,1.27.68,1.87.87.88.28,1.58.32,2.11.12.53-.2.88-.58,1.06-1.15.16-.51.11-1-.17-1.48s-.93-1.15-1.98-2.01c-1.08-.9-1.78-1.75-2.08-2.55-.3-.81-.31-1.66-.03-2.57.36-1.14,1.05-1.9,2.06-2.3,1.01-.4,2.2-.38,3.56.05,1.3.41,2.51,1.11,3.62,2.09l-1.28,1.59c-1.05-.89-2.05-1.49-3-1.79-.72-.23-1.32-.24-1.79-.05-.47.2-.79.55-.95,1.07-.11.35-.13.68-.06.98.07.3.24.61.51.95.27.33.79.82,1.56,1.47.87.73,1.48,1.35,1.83,1.86.35.51.56,1.02.64,1.54.07.52.01,1.09-.18,1.7Z"/>
    <path d="M94.01,90.25l-2.19,8.97c-.25,1.02-.69,1.87-1.32,2.53-.63.66-1.41,1.1-2.34,1.31-.93.21-1.98.18-3.13-.11-1.72-.42-2.95-1.2-3.68-2.35-.73-1.14-.9-2.51-.51-4.11l2.18-8.94,2.28.56-2.15,8.77c-.28,1.14-.22,2.05.18,2.73s1.15,1.15,2.25,1.41c2.14.52,3.48-.34,4.03-2.58l2.14-8.76,2.27.55Z"/>
    <path d="M102.72,106.3l-7.96-1.38,2.44-14.07,7.96,1.38-.34,1.94-5.66-.98-.66,3.83,5.3.92-.33,1.92-5.3-.92-.77,4.42,5.66.98-.34,1.95Z"/>
    <path d="M106.27,106.79l1.63-14.18,2.32.27-1.4,12.2,6.01.69-.23,1.99-8.33-.95Z"/>
    <path d="M125.62,108.42l-8.06-.46.81-14.25,8.06.46-.11,1.97-5.73-.33-.22,3.88,5.37.31-.11,1.95-5.37-.31-.26,4.48,5.73.33-.11,1.98Z"/>
    <path d="M140.28,95.88c-1.34.04-2.38.55-3.12,1.52-.74.97-1.08,2.3-1.03,3.97.05,1.75.46,3.06,1.23,3.94s1.85,1.29,3.25,1.25c.61-.02,1.19-.1,1.75-.23s1.15-.31,1.75-.52l.06,2c-1.11.46-2.37.71-3.79.75-2.09.06-3.71-.52-4.87-1.75-1.16-1.23-1.77-3.03-1.84-5.38-.04-1.48.19-2.79.7-3.92.51-1.13,1.27-2,2.28-2.63,1.01-.62,2.21-.96,3.59-1,1.46-.04,2.81.22,4.07.79l-.78,1.97c-.49-.21-1-.4-1.55-.55s-1.11-.23-1.7-.21Z"/>
    <path d="M159.78,99.59c.24,2.31-.15,4.17-1.17,5.57-1.02,1.4-2.59,2.21-4.71,2.44-2.14.22-3.86-.24-5.14-1.39-1.28-1.15-2.05-2.9-2.29-5.25-.24-2.34.15-4.2,1.17-5.58s2.61-2.18,4.75-2.4c2.11-.22,3.81.25,5.1,1.4,1.29,1.16,2.05,2.89,2.29,5.21ZM148.94,100.73c.18,1.75.67,3.04,1.47,3.87.8.83,1.89,1.17,3.28,1.03,1.38-.14,2.37-.7,2.98-1.67.61-.97.82-2.33.64-4.1-.18-1.74-.67-3.03-1.46-3.85s-1.88-1.17-3.25-1.03c-1.39.15-2.4.71-3.01,1.68-.62.97-.83,2.33-.65,4.07Z"/>
    <path d="M175.93,103.94l-2.81.53-9.01-9.88h-.08s.17.63.17.63c.31,1.17.56,2.25.75,3.24l1.37,7.29-2.08.39-2.64-14.03,2.78-.52,8.98,9.83h.06c-.04-.16-.17-.69-.38-1.6-.21-.92-.37-1.63-.46-2.15l-1.38-7.35,2.1-.4,2.64,14.03Z"/>
    <path d="M184.96,101.65l-2.26.59-3.12-11.87-4.06,1.07-.51-1.94,10.38-2.73.51,1.94-4.06,1.07,3.12,11.87Z"/>
    <path d="M199.26,97.27l-7.68,2.5-4.43-13.57,7.68-2.5.61,1.88-5.46,1.78,1.21,3.69,5.12-1.67.61,1.86-5.12,1.67,1.39,4.26,5.46-1.78.62,1.88Z"/>
    <path d="M213.75,91.61l-2.65,1.07-10.77-7.92-.07.03.28.57c.54,1.09,1,2.1,1.37,3.03l2.78,6.88-1.96.79-5.35-13.24,2.62-1.06,10.73,7.87.05-.02c-.07-.13-.3-.63-.69-1.49-.39-.86-.68-1.53-.88-2.02l-2.8-6.94,1.98-.8,5.35,13.24Z"/>
    <path d="M222.16,87.61l-2.1,1.02-5.37-11.04-3.78,1.84-.88-1.8,9.65-4.7.88,1.8-3.78,1.84,5.37,11.04Z"/>
  </g>
</svg>